<?xml version="1.0" encoding="UTF-8" standalone="no"?>
<!-- Created with Inkscape (http://www.inkscape.org/) -->

<svg
   id="svg2"
   viewBox="0 0 140 190"
   sodipodi:version="0.32"
   version="1.0"
   inkscape:version="1.2 (dc2aedaf03, 2022-05-15)"
   y="0"
   x="0"
   sodipodi:docname="spa.svg"
   xmlns:inkscape="http://www.inkscape.org/namespaces/inkscape"
   xmlns:sodipodi="http://sodipodi.sourceforge.net/DTD/sodipodi-0.dtd"
   xmlns="http://www.w3.org/2000/svg"
   xmlns:svg="http://www.w3.org/2000/svg"
   xmlns:rdf="http://www.w3.org/1999/02/22-rdf-syntax-ns#"
   xmlns:cc="http://creativecommons.org/ns#"
   xmlns:dc="http://purl.org/dc/elements/1.1/">
  <defs
     id="defs19" />
  <sodipodi:namedview
     id="base"
     bordercolor="#666666"
     inkscape:window-x="3118"
     inkscape:window-y="294"
     pagecolor="#ffffff"
     inkscape:zoom="5.6568542"
     inkscape:pageshadow="2"
     borderopacity="1.0"
     inkscape:current-layer="svg2"
     inkscape:cx="44.901281"
     inkscape:cy="89.183843"
     inkscape:window-height="1078"
     inkscape:pageopacity="0.0"
     inkscape:window-width="1919"
     inkscape:showpageshadow="2"
     inkscape:pagecheckerboard="0"
     inkscape:deskcolor="#d1d1d1"
     showgrid="false"
     inkscape:window-maximized="0" />
  <g
     id="layer1"
     inkscape:label="Layer 1"
     inkscape:groupmode="layer">
    <g
       id="g5630">
      <path
         id="rect2070"
         style="fill-opacity:.49804;fill:#000000"
         d="m21 5h103c8.86 0 16 7.136 16 16v153c0 8.86-7.14 16-16 16h-103c-8.864 0-16-7.14-16-16v-153c0-8.864 7.136-16 16-16z" />
      <path
         id="rect1300"
         style="fill:#e7e7e7"
         d="m17 1h103c8.86 0 16 7.136 16 16v153c0 8.86-7.14 16-16 16h-103c-8.864 0-16-7.14-16-16v-153c0-8.864 7.136-16 16-16z" />
      <path
         id="path5624"
         style="fill:#c7891f"
         d="m19 3h103c8.86 0 16 7.136 16 16v153c0 8.86-7.14 16-16 16h-103c-8.864 0-16-7.14-16-16v-153c0-8.864 7.136-16 16-16z" />
      <path
         id="rect1306"
         style="fill:#ffffff"
         d="m18 2h103c8.86 0 16 7.136 16 16v153c0 8.86-7.14 16-16 16h-103c-8.864 0-16-7.14-16-16v-153c0-8.864 7.136-16 16-16z" />
    </g>
  </g>
  <g
     id="g1600"
     transform="matrix(1 0 0 .40081 -239.33 -10.811)">
    <path
       id="path1561"
       sodipodi:nodetypes="cccccccccc"
       style="fill-rule:evenodd;fill:#000000"
       d="m260.42 148.39c-4.93 19.52-20.04 52.76-10.46 63.03 5.81 4.72 8.57-4.95 9.74-11.35h0.24l-3.86 32.3 8.94-0.1s-3.85-31.05-3.86-32.23h0.09c0.95 5.23 4.54 16.06 8.49 11.94 11.54-11.57-5.46-44.47-9.32-63.59z" />
  </g>
  <path
     id="text1481"
     style="fill:#000000"
     d="m25.079 36.775h-10.001l-1.579 5.465h-6.429l9.187-30h7.626l9.187 30h-6.429l-1.562-5.465m-8.406-5.566h6.794l-3.389-11.936-3.405 11.936" />
  <g
     id="g19507"
     transform="matrix(-1 0 0 -.40081 378.02 199.48)">
    <path
       id="path19509"
       sodipodi:nodetypes="cccccccccc"
       style="fill-rule:evenodd;fill:#000000"
       d="m260.42 148.39c-4.93 19.52-20.04 52.76-10.46 63.03 5.81 4.72 8.57-4.95 9.74-11.35h0.24l-3.86 32.3 8.94-0.1s-3.85-31.05-3.86-32.23h0.09c0.95 5.23 4.54 16.06 8.49 11.94 11.54-11.57-5.46-44.47-9.32-63.59z" />
  </g>
  <path
     id="text19511"
     style="fill:#000000"
     d="m113.61 152.1h10l1.58-5.47h6.43l-9.19 30h-7.62l-9.19-30h6.43l1.56 5.47m8.41 5.56h-6.8l3.39 11.94 3.41-11.94" />
  <path
     id="path4163"
     sodipodi:nodetypes="cccccccccc"
     style="fill:#000000;fill-rule:evenodd"
     d="M 69.781,59.062 C 59.206,75.876 26.756,104.5 47.312,113.34 c 12.479,4.07 18.423,-4.26 20.938,-9.78 h 0.5 l -8.281,27.82 19.187,-0.07 c 0,0 -8.262,-26.76 -8.281,-27.78 h 0.187 c 2.032,4.51 9.74,13.84 18.219,10.28 24.799,-9.96 -11.708,-38.283 -20,-54.748 z" />
  <metadata
     id="metadata16">
    <rdf:RDF>
      <cc:Work>
        <dc:format>image/svg+xml</dc:format>
        <dc:type
           rdf:resource="http://purl.org/dc/dcmitype/StillImage" />
        <cc:license
           rdf:resource="http://creativecommons.org/licenses/publicdomain/" />
        <dc:publisher>
          <cc:Agent
             rdf:about="http://openclipart.org/">
            <dc:title>Openclipart</dc:title>
          </cc:Agent>
        </dc:publisher>
        <dc:title>White deck: Ace of spades</dc:title>
        <dc:date>2009-03-24T13:40:39</dc:date>
        <dc:description>playing card from the &quot;White&quot; set</dc:description>
        <dc:source>https://openclipart.org/detail/23224/white-deck:-ace-of-spades-by-nicubunu</dc:source>
        <dc:creator>
          <cc:Agent>
            <dc:title>nicubunu</dc:title>
          </cc:Agent>
        </dc:creator>
        <dc:subject>
          <rdf:Bag>
            <rdf:li>card</rdf:li>
            <rdf:li>cards</rdf:li>
            <rdf:li>deck</rdf:li>
            <rdf:li>gambling</rdf:li>
            <rdf:li>game</rdf:li>
            <rdf:li>play</rdf:li>
            <rdf:li>playing cards</rdf:li>
            <rdf:li>white deck</rdf:li>
          </rdf:Bag>
        </dc:subject>
      </cc:Work>
      <cc:License
         rdf:about="http://creativecommons.org/licenses/publicdomain/">
        <cc:permits
           rdf:resource="http://creativecommons.org/ns#Reproduction" />
        <cc:permits
           rdf:resource="http://creativecommons.org/ns#Distribution" />
        <cc:permits
           rdf:resource="http://creativecommons.org/ns#DerivativeWorks" />
      </cc:License>
    </rdf:RDF>
  </metadata>
</svg>
